# xmcd CD database file
#
# Track frame offsets:
#	150
#	7630
#	43707
#	69822
#	94108
#	125623
#	146304
#	161167
#	196719
#	203976
#	236225
#	266287
#
# Disc length: 3865 seconds
#
# Revision: 0
# Processed by: cddbd v1.5.2PL0 Copyright (c) Steve Scherf et al.
# Submitted via: CDex 1.70beta2
#
DISCID=980f170c
DTITLE=Lars Winther Trio - Nordic By Nature
DYEAR=2007
DGENRE=Jazz
TTITLE0=Nordic By Nature - Introduction
TTITLE1=Out Of Nowhere
TTITLE2=Avalanche
TTITLE3=Morgen
TTITLE4=Tusmorke
TTITLE5=Rise Of Fall
TTITLE6=Nordic By Nature - Interlude
TTITLE7=Waltz For Noone
TTITLE8=Interlude #1
TTITLE9=Bag Sondermarken 13, 3. th 
TTITLE10=Time To Go
TTITLE11=Nordic By Nature - Outroduction
EXTD=YEAR: 2007
EXTT0=
EXTT1=
EXTT2=
EXTT3=
EXTT4=
EXTT5=
EXTT6=
EXTT7=
EXTT8=
EXTT9=
EXTT10=
EXTT11=
PLAYORDER=
